<svg width="20" height="20" viewBox="0 0 20 20" fill="none" xmlns="http://www.w3.org/2000/svg">
<path fill-rule="evenodd" clip-rule="evenodd" d="M12.6825 5.80749C12.7406 5.74928 12.8095 5.7031 12.8855 5.6716C12.9614 5.64009 13.0428 5.62387 13.125 5.62387C13.2072 5.62387 13.2886 5.64009 13.3646 5.6716C13.4405 5.7031 13.5095 5.74928 13.5675 5.80749L17.3175 9.55749C17.3757 9.61554 17.4219 9.68451 17.4534 9.76045C17.4849 9.83638 17.5011 9.91778 17.5011 9.99999C17.5011 10.0822 17.4849 10.1636 17.4534 10.2395C17.4219 10.3155 17.3757 10.3844 17.3175 10.4425L13.5675 14.1925C13.4502 14.3098 13.291 14.3758 13.125 14.3758C12.959 14.3758 12.7999 14.3098 12.6825 14.1925C12.5652 14.0751 12.4992 13.916 12.4992 13.75C12.4992 13.584 12.5652 13.4248 12.6825 13.3075L15.9913 9.99999L12.6825 6.69249C12.6243 6.63443 12.5781 6.56546 12.5466 6.48953C12.5151 6.4136 12.4989 6.3322 12.4989 6.24999C12.4989 6.16778 12.5151 6.08638 12.5466 6.01045C12.5781 5.93451 12.6243 5.86554 12.6825 5.80749Z" fill="white"/>
<path fill-rule="evenodd" clip-rule="evenodd" d="M2.5 10C2.5 9.83424 2.56585 9.67527 2.68306 9.55806C2.80027 9.44085 2.95924 9.375 3.125 9.375H16.25C16.4158 9.375 16.5747 9.44085 16.6919 9.55806C16.8092 9.67527 16.875 9.83424 16.875 10C16.875 10.1658 16.8092 10.3247 16.6919 10.4419C16.5747 10.5592 16.4158 10.625 16.25 10.625H3.125C2.95924 10.625 2.80027 10.5592 2.68306 10.4419C2.56585 10.3247 2.5 10.1658 2.5 10Z" fill="white"/>
</svg>
