<svg width="30" height="30" viewBox="0 0 30 30" fill="none" xmlns="http://www.w3.org/2000/svg">
<path d="M1.85152 4.7168C3.25777 4.7168 4.66402 4.7168 6.07027 4.7168C6.27242 4.7168 6.47457 4.7168 6.67671 4.7168C6.39546 4.50293 6.11128 4.28613 5.83003 4.07227C5.97066 4.5 6.11128 4.92773 6.25191 5.3584C6.59175 6.38672 6.92867 7.41504 7.26851 8.44336C7.67574 9.67969 8.08589 10.9189 8.49312 12.1582C8.84761 13.2334 9.2021 14.3086 9.55367 15.3838C9.72652 15.9053 9.89058 16.4297 10.0693 16.9482C10.0722 16.957 10.0751 16.9629 10.0781 16.9717C10.2216 17.4082 10.6933 17.7363 11.1591 17.5869C11.5927 17.4463 11.9267 16.9746 11.7744 16.5059C11.6337 16.0781 11.4931 15.6504 11.3525 15.2197C11.0126 14.1914 10.6757 13.1631 10.3359 12.1348C9.92867 10.8955 9.52144 9.65625 9.11128 8.41699C8.75679 7.3418 8.4023 6.2666 8.05074 5.19141C7.87788 4.66992 7.71675 4.14551 7.53511 3.62695C7.53218 3.61816 7.52925 3.6123 7.52632 3.60352C7.40328 3.23438 7.07808 2.95898 6.67964 2.95898C5.27339 2.95898 3.86714 2.95898 2.4609 2.95898C2.25875 2.95898 2.0566 2.95898 1.85445 2.95898C1.39449 2.95898 0.955036 3.36328 0.975544 3.83789C0.993122 4.31543 1.35933 4.7168 1.85152 4.7168Z" fill="white"/>
<path d="M10.166 16.292C9.69135 17.1387 9.21381 17.9824 8.7392 18.8291C8.67182 18.9522 8.60151 19.0723 8.53413 19.1953C8.20893 19.7725 8.61909 20.5166 9.29292 20.5166C9.79975 20.5166 10.3066 20.5166 10.8134 20.5166C12.0322 20.5166 13.248 20.5166 14.4668 20.5166C15.9404 20.5166 17.414 20.5166 18.8877 20.5166C20.1621 20.5166 21.4365 20.5166 22.7109 20.5166C23.3291 20.5166 23.9502 20.5283 24.5713 20.5166C24.5801 20.5166 24.5888 20.5166 24.5976 20.5166C25.0576 20.5166 25.4971 20.1123 25.4765 19.6377C25.456 19.1602 25.0898 18.7588 24.5976 18.7588C24.0908 18.7588 23.584 18.7588 23.0771 18.7588C21.8584 18.7588 20.6425 18.7588 19.4238 18.7588C17.9502 18.7588 16.4765 18.7588 15.0029 18.7588C13.7285 18.7588 12.4541 18.7588 11.1796 18.7588C10.5615 18.7588 9.93745 18.7412 9.31928 18.7588C9.31049 18.7588 9.30171 18.7588 9.29292 18.7588C9.54487 19.1983 9.79975 19.6406 10.0517 20.0801C10.5263 19.2334 11.0039 18.3897 11.4785 17.543C11.5459 17.4199 11.6162 17.2998 11.6835 17.1768C11.9091 16.7754 11.7919 16.1983 11.3671 15.9756C10.9511 15.7588 10.4062 15.8643 10.166 16.292Z" fill="white"/>
<path d="M21.8701 26.1621C22.972 26.1621 23.8652 25.2689 23.8652 24.167C23.8652 23.0651 22.972 22.1719 21.8701 22.1719C20.7682 22.1719 19.875 23.0651 19.875 24.167C19.875 25.2689 20.7682 26.1621 21.8701 26.1621Z" fill="white"/>
<path d="M19.2891 24.167C19.3008 25.2656 19.9893 26.2149 21.0117 26.5986C21.9785 26.9619 23.168 26.6455 23.8271 25.8486C24.5273 24.999 24.668 23.7891 24.0849 22.834C23.5107 21.8906 22.4092 21.4307 21.334 21.6416C20.1475 21.8731 19.3008 22.9776 19.2891 24.167C19.2862 24.4746 19.5615 24.7676 19.875 24.7529C20.1944 24.7383 20.458 24.4951 20.461 24.167C20.461 24.1201 20.4639 24.0703 20.4668 24.0235C20.4668 24.0029 20.4697 23.9824 20.4727 23.9619C20.4815 23.8447 20.4697 24 20.4668 23.9971C20.4463 23.9854 20.5283 23.7334 20.5371 23.71C20.5459 23.6865 20.5635 23.5869 20.584 23.5811C20.5899 23.5781 20.5313 23.6895 20.5635 23.6309C20.5752 23.6074 20.5869 23.584 20.5957 23.5606C20.6397 23.4727 20.6924 23.3936 20.7451 23.3115C20.8008 23.2266 20.666 23.4024 20.7598 23.294C20.7891 23.2617 20.8184 23.2266 20.8506 23.1944C20.8828 23.1621 20.9151 23.1299 20.9473 23.1006C20.9619 23.0889 20.9766 23.0742 20.9912 23.0625C21.0117 23.0449 21.0967 23.0039 21.0205 23.0361C20.9561 23.0625 21.0029 23.0508 21.0234 23.0361C21.044 23.0215 21.0645 23.0069 21.0879 22.9922C21.1201 22.9717 21.1524 22.9512 21.1875 22.9336C21.2315 22.9072 21.2783 22.8867 21.3252 22.8633C21.3399 22.8545 21.4014 22.8252 21.3252 22.8604C21.2373 22.9014 21.3545 22.8516 21.3633 22.8487C21.4424 22.8194 21.5274 22.7959 21.6094 22.7783C21.6357 22.7725 21.6621 22.7695 21.6885 22.7637C21.7529 22.749 21.6328 22.7695 21.6328 22.7695C21.6856 22.7695 21.7412 22.7578 21.794 22.7578C21.8906 22.7549 21.9844 22.7578 22.0811 22.7666C22.1895 22.7754 21.9697 22.7461 22.1045 22.7725C22.1572 22.7813 22.207 22.7959 22.2598 22.8076C22.3037 22.8194 22.3477 22.834 22.3916 22.8487C22.4033 22.8516 22.4619 22.8721 22.4648 22.875C22.4678 22.8838 22.3564 22.8194 22.415 22.8545C22.4971 22.9043 22.5879 22.9424 22.6699 22.9951C22.6904 23.0098 22.7109 23.0244 22.7344 23.0391C22.7549 23.0537 22.7988 23.0654 22.7373 23.0391C22.6787 23.0156 22.7168 23.0215 22.7373 23.042C22.7578 23.0596 22.7754 23.0742 22.7959 23.0918C22.8691 23.1563 22.9307 23.2266 22.9951 23.2969C23.083 23.3936 22.9541 23.2295 23.0098 23.3145C23.0332 23.3526 23.0596 23.3877 23.083 23.4258C23.1064 23.4639 23.1299 23.5049 23.1504 23.543C23.1592 23.5606 23.168 23.5781 23.1768 23.5957C23.2324 23.7012 23.1885 23.5869 23.1738 23.5811C23.209 23.5928 23.2471 23.8037 23.2588 23.8418C23.2676 23.8799 23.2764 23.9209 23.2852 23.959C23.3086 24.0703 23.2822 23.9238 23.2822 23.9209C23.2969 23.9356 23.291 24.0029 23.291 24.0205C23.2969 24.1084 23.2969 24.1992 23.291 24.2871C23.2881 24.3135 23.2852 24.3399 23.2852 24.3692C23.2822 24.4278 23.25 24.419 23.291 24.334C23.2705 24.3779 23.2705 24.4424 23.2588 24.4893C23.2383 24.5713 23.206 24.6504 23.1826 24.7324C23.1592 24.8057 23.2353 24.6328 23.1973 24.7002C23.1885 24.7149 23.1797 24.7354 23.1738 24.7529C23.1504 24.7998 23.1269 24.8438 23.1006 24.8877C23.0771 24.9258 23.0537 24.9639 23.0273 25.002C22.9482 25.1221 23.083 24.9434 23.0156 25.0225C22.9512 25.0957 22.8896 25.166 22.8164 25.2305C22.8047 25.2422 22.7344 25.3184 22.7139 25.3184C22.7139 25.3184 22.834 25.2363 22.7402 25.2949C22.7227 25.3067 22.708 25.3154 22.6934 25.3272C22.6113 25.3799 22.5264 25.4238 22.4414 25.4678C22.3506 25.5147 22.5469 25.4326 22.4209 25.4766C22.377 25.4912 22.3359 25.5059 22.292 25.5205C22.248 25.5322 22.2041 25.544 22.1572 25.5557C22.1367 25.5586 22.1191 25.5645 22.0986 25.5674C21.9697 25.5967 22.1924 25.5615 22.1162 25.5674C22.0195 25.5762 21.9258 25.582 21.8291 25.5791C21.7822 25.5791 21.7354 25.5733 21.6856 25.5703C21.668 25.5703 21.5977 25.5615 21.6826 25.5703C21.7793 25.5791 21.6621 25.5645 21.6416 25.5615C21.5391 25.541 21.4395 25.5088 21.3399 25.4736C21.3223 25.4678 21.2637 25.4385 21.3369 25.4736C21.4219 25.5147 21.3193 25.4649 21.3018 25.4561C21.2549 25.4326 21.2109 25.4092 21.167 25.3828C21.1231 25.3565 21.082 25.3272 21.0381 25.2979C20.9678 25.2539 21.0469 25.3213 21.0645 25.3213C21.0527 25.3213 21.0147 25.2803 21.0059 25.2715C20.9297 25.2041 20.8565 25.1338 20.7891 25.0547C20.7891 25.0547 20.7393 25.0049 20.7393 24.9961C20.7393 25.0078 20.8096 25.0957 20.7627 25.0225C20.7334 24.9785 20.7041 24.9375 20.6777 24.8936C20.6485 24.8438 20.6221 24.791 20.5957 24.7412C20.5342 24.6211 20.625 24.835 20.5781 24.7031C20.543 24.6035 20.5137 24.5039 20.4932 24.3985C20.4902 24.3809 20.4902 24.3545 20.4815 24.3399C20.5254 24.4365 20.4902 24.4219 20.4844 24.3545C20.4785 24.293 20.4756 24.2315 20.4756 24.1699C20.4727 23.8623 20.209 23.5694 19.8897 23.584C19.5615 23.5928 19.2862 23.8389 19.2891 24.167Z" fill="white"/>
<path d="M11.7715 26.1621C12.8734 26.1621 13.7666 25.2689 13.7666 24.167C13.7666 23.0651 12.8734 22.1719 11.7715 22.1719C10.6696 22.1719 9.77637 23.0651 9.77637 24.167C9.77637 25.2689 10.6696 26.1621 11.7715 26.1621Z" fill="white"/>
<path d="M9.1904 24.167C9.20212 25.2656 9.89059 26.2149 10.9131 26.5986C11.8799 26.9619 13.0693 26.6455 13.7285 25.8486C14.4287 24.999 14.5693 23.7891 13.9863 22.834C13.4121 21.8906 12.3105 21.4307 11.2353 21.6416C10.0459 21.8731 9.20212 22.9776 9.1904 24.167C9.18747 24.4746 9.46286 24.7676 9.77634 24.7529C10.0957 24.7383 10.3593 24.4951 10.3623 24.167C10.3623 24.1201 10.3652 24.0703 10.3681 24.0235C10.3681 24.0029 10.3711 23.9824 10.374 23.9619C10.3828 23.8447 10.3711 24 10.3681 23.9971C10.3476 23.9854 10.4297 23.7334 10.4384 23.71C10.4472 23.6865 10.4648 23.5869 10.4853 23.5811C10.4912 23.5781 10.4326 23.6895 10.4648 23.6309C10.4765 23.6074 10.4882 23.584 10.497 23.5606C10.541 23.4727 10.5937 23.3936 10.6465 23.3115C10.7021 23.2266 10.5674 23.4024 10.6611 23.294C10.6904 23.2617 10.7197 23.2266 10.7519 23.1944C10.7841 23.1621 10.8164 23.1299 10.8486 23.1006C10.8632 23.0889 10.8779 23.0742 10.8925 23.0625C10.9131 23.0449 10.998 23.0039 10.9218 23.0361C10.8574 23.0625 10.9043 23.0508 10.9248 23.0361C10.9453 23.0215 10.9658 23.0069 10.9892 22.9922C11.0215 22.9717 11.0537 22.9512 11.0888 22.9336C11.1328 22.9072 11.1797 22.8867 11.2265 22.8633C11.2412 22.8545 11.3027 22.8252 11.2265 22.8604C11.1386 22.9014 11.2558 22.8516 11.2646 22.8487C11.3437 22.8194 11.4287 22.7959 11.5107 22.7783C11.5371 22.7725 11.5634 22.7695 11.5898 22.7637C11.6543 22.749 11.5341 22.7695 11.5341 22.7695C11.5869 22.7695 11.6425 22.7578 11.6953 22.7578C11.792 22.7549 11.8857 22.7578 11.9824 22.7666C12.0908 22.7754 11.8711 22.7461 12.0058 22.7725C12.0586 22.7813 12.1084 22.7959 12.1611 22.8076C12.205 22.8194 12.249 22.834 12.2929 22.8487C12.3047 22.8516 12.3633 22.8721 12.3662 22.875C12.3691 22.8838 12.2578 22.8194 12.3164 22.8545C12.3984 22.9043 12.4892 22.9424 12.5713 22.9951C12.5918 23.0098 12.6123 23.0244 12.6357 23.0391C12.6562 23.0537 12.7002 23.0654 12.6386 23.0391C12.58 23.0156 12.6181 23.0215 12.6386 23.042C12.6591 23.0596 12.6767 23.0742 12.6972 23.0918C12.7705 23.1563 12.832 23.2266 12.8965 23.2969C12.9843 23.3936 12.8554 23.2295 12.9111 23.3145C12.9345 23.3526 12.9609 23.3877 12.9843 23.4258C13.0078 23.4639 13.0312 23.5049 13.0517 23.543C13.0605 23.5606 13.0693 23.5781 13.0781 23.5957C13.1338 23.7012 13.0898 23.5869 13.0752 23.5811C13.1103 23.5928 13.1484 23.8037 13.1601 23.8418C13.1689 23.8799 13.1777 23.9209 13.1865 23.959C13.2099 24.0703 13.1836 23.9238 13.1836 23.9209C13.1982 23.9356 13.1924 24.0029 13.1924 24.0205C13.1982 24.1084 13.1982 24.1992 13.1924 24.2871C13.1894 24.3135 13.1865 24.3399 13.1865 24.3692C13.1836 24.4278 13.1513 24.419 13.1924 24.334C13.1718 24.3779 13.1718 24.4424 13.1601 24.4893C13.1396 24.5713 13.1074 24.6504 13.084 24.7324C13.0605 24.8057 13.1367 24.6328 13.0986 24.7002C13.0898 24.7149 13.081 24.7354 13.0752 24.7529C13.0517 24.7998 13.0283 24.8438 13.0019 24.8877C12.9785 24.9258 12.955 24.9639 12.9287 25.002C12.8496 25.1221 12.9843 24.9434 12.917 25.0225C12.8525 25.0957 12.791 25.166 12.7177 25.2305C12.706 25.2422 12.6357 25.3184 12.6152 25.3184C12.6152 25.3184 12.7353 25.2363 12.6416 25.2949C12.624 25.3067 12.6093 25.3154 12.5947 25.3272C12.5127 25.3799 12.4277 25.4238 12.3427 25.4678C12.2519 25.5147 12.4482 25.4326 12.3222 25.4766C12.2783 25.4912 12.2373 25.5059 12.1933 25.5205C12.1494 25.5322 12.1054 25.544 12.0586 25.5557C12.0381 25.5586 12.0205 25.5645 12 25.5674C11.8711 25.5967 12.0937 25.5615 12.0175 25.5674C11.9209 25.5762 11.8271 25.582 11.7304 25.5791C11.6836 25.5791 11.6367 25.5733 11.5869 25.5703C11.5693 25.5703 11.499 25.5615 11.584 25.5703C11.6806 25.5791 11.5634 25.5645 11.5429 25.5615C11.4404 25.541 11.3408 25.5088 11.2412 25.4736C11.2236 25.4678 11.165 25.4385 11.2383 25.4736C11.3232 25.5147 11.2207 25.4649 11.2031 25.4561C11.1562 25.4326 11.1123 25.4092 11.0683 25.3828C11.0244 25.3565 10.9834 25.3272 10.9394 25.2979C10.8691 25.2539 10.9482 25.3213 10.9658 25.3213C10.9541 25.3213 10.916 25.2803 10.9072 25.2715C10.831 25.2041 10.7578 25.1338 10.6904 25.0547C10.6904 25.0547 10.6406 25.0049 10.6406 24.9961C10.6406 25.0078 10.7109 25.0957 10.664 25.0225C10.6347 24.9785 10.6054 24.9375 10.5791 24.8936C10.5498 24.8438 10.5234 24.791 10.497 24.7412C10.4355 24.6211 10.5263 24.835 10.4795 24.7031C10.4443 24.6035 10.415 24.5039 10.3945 24.3985C10.3916 24.3809 10.3916 24.3545 10.3828 24.3399C10.4267 24.4365 10.3916 24.4219 10.3857 24.3545C10.3799 24.293 10.3769 24.2315 10.3769 24.1699C10.374 23.8623 10.1103 23.5694 9.79099 23.584C9.45993 23.5928 9.18454 23.8389 9.1904 24.167Z" fill="white"/>
<path d="M28.1484 7.55859L24.5918 16.7285H10.9248L7.90137 7.55859H28.1484Z" fill="white"/>
<path d="M27.583 7.39744C27.1816 8.43162 26.7832 9.4658 26.3818 10.5C25.7431 12.1494 25.1045 13.7959 24.4687 15.4453C24.3222 15.8232 24.1757 16.2041 24.0293 16.582C24.2168 16.4385 24.4072 16.2949 24.5947 16.1513C24.1406 16.1513 23.6836 16.1513 23.2295 16.1513C22.1425 16.1513 21.0527 16.1513 19.9658 16.1513C18.6504 16.1513 17.3349 16.1513 16.0195 16.1513C14.8828 16.1513 13.7461 16.1513 12.6093 16.1513C12.0586 16.1513 11.5019 16.1279 10.9482 16.1513C10.9394 16.1513 10.9336 16.1513 10.9248 16.1513C11.1123 16.2949 11.3027 16.4385 11.4902 16.582C11.1474 15.542 10.8076 14.5049 10.4648 13.4648C9.92282 11.8213 9.38083 10.1777 8.84177 8.53123C8.71579 8.1533 8.59275 7.77537 8.46677 7.39451C8.27927 7.6406 8.08884 7.88963 7.90134 8.13572C8.08005 8.13572 8.26169 8.13572 8.4404 8.13572C8.93259 8.13572 9.42478 8.13572 9.91696 8.13572C10.6406 8.13572 11.3642 8.13572 12.0908 8.13572C12.9785 8.13572 13.8662 8.13572 14.7568 8.13572C15.7265 8.13572 16.6933 8.13572 17.6631 8.13572C18.6445 8.13572 19.6289 8.13572 20.6103 8.13572C21.5214 8.13572 22.4326 8.13572 23.3437 8.13572C24.1171 8.13572 24.8906 8.13572 25.667 8.13572C26.2207 8.13572 26.7744 8.13572 27.3281 8.13572C27.5918 8.13572 27.8554 8.14158 28.1162 8.13572C28.1279 8.13572 28.1396 8.13572 28.1513 8.13572C28.4589 8.13572 28.7519 7.86619 28.7373 7.54978C28.7226 7.23338 28.4794 6.96385 28.1513 6.96385C27.9726 6.96385 27.791 6.96385 27.6123 6.96385C27.1201 6.96385 26.6279 6.96385 26.1357 6.96385C25.4121 6.96385 24.6884 6.96385 23.9619 6.96385C23.0742 6.96385 22.1865 6.96385 21.2959 6.96385C20.3261 6.96385 19.3593 6.96385 18.3896 6.96385C17.4082 6.96385 16.4238 6.96385 15.4424 6.96385C14.5312 6.96385 13.6201 6.96385 12.709 6.96385C11.9355 6.96385 11.1621 6.96385 10.3857 6.96385C9.832 6.96385 9.27829 6.96385 8.72458 6.96385C8.46091 6.96385 8.19724 6.95799 7.9365 6.96385C7.92478 6.96385 7.91306 6.96385 7.90134 6.96385C7.53513 6.96385 7.21579 7.34178 7.33591 7.70506C7.67868 8.7451 8.01853 9.78221 8.3613 10.8222C8.90329 12.4658 9.44528 14.1094 9.98435 15.7558C10.1103 16.1338 10.2334 16.5117 10.3593 16.8926C10.4414 17.1386 10.6582 17.3232 10.9248 17.3232C11.3789 17.3232 11.8359 17.3232 12.29 17.3232C13.3769 17.3232 14.4668 17.3232 15.5537 17.3232C16.8691 17.3232 18.1845 17.3232 19.5 17.3232C20.6367 17.3232 21.7734 17.3232 22.9101 17.3232C23.4609 17.3232 24.0175 17.3437 24.5712 17.3232C24.58 17.3232 24.5859 17.3232 24.5947 17.3232C24.873 17.3232 25.0664 17.1357 25.1601 16.8926C25.5615 15.8584 25.9599 14.8242 26.3613 13.79C27 12.1406 27.6386 10.4941 28.2744 8.84471C28.4209 8.46678 28.5673 8.08592 28.7138 7.70799C28.8252 7.42088 28.5908 7.05174 28.3037 6.98728C27.9668 6.91111 27.7002 7.08982 27.583 7.39744Z" fill="white"/>
</svg>
