<svg width="29" height="29" viewBox="0 0 29 29" fill="none" xmlns="http://www.w3.org/2000/svg">
<path d="M6.11721 0.0283289C6.0719 0.039657 5.83967 0.0793054 5.60745 0.11329C4.29338 0.328524 3.00764 1.00255 2.0051 2.00509C1.04787 2.96798 0.424827 4.10079 0.13596 5.43751C0.0340071 5.8963 0.028343 6.33809 0.028343 14.4717C0.028343 23.7494 0.0113508 23.285 0.345531 24.3102C0.674046 25.324 1.22346 26.2076 2.0051 26.9949C2.79241 27.7766 3.676 28.326 4.68987 28.6545C5.64709 28.966 5.73205 28.9717 9.01155 28.9717H12.0418L12.274 28.8188C12.6252 28.5865 12.7725 28.309 12.7725 27.8672C12.7725 27.4254 12.6252 27.1479 12.274 26.9156L12.0475 26.7627L9.03987 26.7287C5.82834 26.7004 5.91331 26.7061 5.08635 26.3945C4.08381 26.0207 2.97932 24.9162 2.60549 23.9137C2.27131 23.0301 2.29397 23.6758 2.29397 14.5C2.29397 5.32423 2.27131 5.96993 2.60549 5.08634C3.00764 4.0045 4.11213 2.95098 5.26194 2.54317C6.07756 2.2543 5.96428 2.25997 14.7549 2.27696C23.7098 2.29395 23.0244 2.2713 23.9137 2.60548C24.3612 2.76973 25.0182 3.21153 25.4033 3.60802C25.8055 4.0045 26.2303 4.6502 26.3946 5.08634C26.7061 5.91895 26.7004 5.78868 26.7344 9.43633L26.7627 12.8348L26.9157 13.067C27.1479 13.4182 27.4254 13.5654 27.8672 13.5654C28.309 13.5654 28.5866 13.4182 28.8188 13.067L28.9717 12.8348V9.40801C28.9717 6.71192 28.9547 5.89063 28.8924 5.57911C28.3543 2.86602 26.4002 0.832626 23.6758 0.152938C23.2 0.0339929 23.1434 0.0339929 14.6983 0.0226648C10.0254 0.0170008 6.16252 0.0170008 6.11721 0.0283289Z" fill="#22668A"/>
<path d="M8.96057 4.64445C8.34319 4.80871 7.90139 5.06359 7.41994 5.5507C6.92717 6.03781 6.67795 6.47394 6.51369 7.11398C6.30979 7.91261 6.41174 8.77922 6.80822 9.53254C7.04612 9.99132 7.73713 10.6823 8.19592 10.9202C8.94924 11.3167 9.81585 11.4187 10.6145 11.2148C11.2545 11.0505 11.6907 10.8013 12.1778 10.3085C12.6705 9.8214 12.9198 9.38527 13.084 8.74523C13.2879 7.9466 13.186 7.08 12.7895 6.32668C12.5516 5.86789 11.8606 5.17687 11.4018 4.93898C10.6541 4.54816 9.75354 4.44054 8.96057 4.64445ZM10.4219 6.98937C10.7561 7.21027 10.9033 7.49347 10.9033 7.92961C10.9033 8.3714 10.7561 8.64894 10.4049 8.88117C10.0877 9.09074 9.53831 9.10207 9.21545 8.89816C8.78498 8.63195 8.58674 8.10519 8.71702 7.60109C8.79631 7.31222 9.14182 6.9384 9.4137 6.8591C9.71389 6.76847 10.1783 6.82511 10.4219 6.98937Z" fill="#22668A"/>
<path d="M15.9274 5.95293C15.6612 6.03222 15.31 6.40605 15.2307 6.69492C15.1004 7.19902 15.2987 7.72578 15.7291 7.99199L15.9444 8.12793H19.8299H23.7098L23.942 7.975C24.2932 7.74277 24.4405 7.46523 24.4405 7.02344C24.4405 6.58164 24.2932 6.3041 23.942 6.07187L23.7098 5.91894L19.9149 5.90761C17.6153 5.90195 16.0407 5.91894 15.9274 5.95293Z" fill="#22668A"/>
<path d="M15.9274 9.91777C15.6612 9.99707 15.31 10.3709 15.2307 10.6598C15.1004 11.1639 15.2987 11.6906 15.7291 11.9568L15.9444 12.0928H19.8299H23.7098L23.942 11.9398C24.2932 11.7076 24.4405 11.4301 24.4405 10.9883C24.4405 10.5465 24.2932 10.2689 23.942 10.0367L23.7098 9.88379L19.9149 9.87246C17.6153 9.86679 16.0407 9.88379 15.9274 9.91777Z" fill="#22668A"/>
<path d="M8.64904 12.6308C7.31799 12.8687 5.89631 13.724 5.72072 14.3923C5.54514 15.0494 5.92463 15.6951 6.559 15.831C6.91584 15.9046 7.22736 15.814 7.60686 15.5251C8.3092 14.987 8.77365 14.8398 9.79885 14.8398C10.824 14.8398 11.2885 14.987 11.9908 15.5251C12.5063 15.916 12.9651 15.9613 13.4295 15.6611C13.758 15.4458 13.9053 15.1626 13.9053 14.7265C13.9053 14.2507 13.7694 14.0242 13.2313 13.622C12.7158 13.2312 12.1664 12.9593 11.5264 12.7667C11.0676 12.6308 10.909 12.6138 9.96877 12.5968C9.39104 12.5912 8.79631 12.6025 8.64904 12.6308Z" fill="#22668A"/>
<path d="M24.0383 15.1457C23.5965 15.2476 23.0868 15.4515 22.6676 15.6951C22.3164 15.9047 18.2666 19.8752 17.5586 20.7021C16.8166 21.5744 16.3125 22.475 15.9727 23.5342C15.7122 24.3498 15.0495 27.7142 15.0891 28.0314C15.1514 28.5242 15.5422 28.915 16.0293 28.9717C16.3522 29.0113 19.694 28.3599 20.5323 28.0937C21.5575 27.7652 22.4864 27.2441 23.3643 26.5021C23.993 25.9697 28.0371 21.8916 28.2467 21.5801C28.5073 21.1949 28.6942 20.8041 28.8358 20.334C29.0284 19.7279 29.0284 18.6801 28.8358 18.0683C28.3996 16.6636 27.4198 15.6724 26.0264 15.2363C25.5166 15.0777 24.5311 15.0324 24.0383 15.1457ZM25.6129 17.4849C25.9811 17.6549 26.3662 18.023 26.5475 18.4025C26.6834 18.6744 26.7061 18.7877 26.7061 19.2011C26.7061 20.0111 26.7401 19.9658 24.061 22.6336C21.6084 25.0804 21.3819 25.273 20.47 25.6922C20.2434 25.7998 19.8186 25.947 19.5297 26.0263C18.8047 26.2133 17.7342 26.4172 17.6889 26.3775C17.6493 26.3322 17.8532 25.2617 18.0401 24.5367C18.1194 24.2478 18.2666 23.823 18.3743 23.5965C18.7934 22.6902 18.9916 22.4523 21.3762 20.0621C22.6223 18.8047 23.7494 17.7058 23.8741 17.6265C23.9987 17.5472 24.2026 17.451 24.3272 17.4056C24.6444 17.3037 25.2844 17.3433 25.6129 17.4849Z" fill="#22668A"/>
<path d="M6.29847 17.8475C6.03225 17.9268 5.68108 18.2949 5.60179 18.5895C5.47151 19.0936 5.66975 19.6203 6.10022 19.8865L6.31546 20.0225H10.824H15.327L15.5592 19.8695C15.9104 19.6373 16.0576 19.3598 16.0576 18.918C16.0576 18.4762 15.9104 18.1986 15.5592 17.9664L15.327 17.8135L10.909 17.8022C8.21858 17.7965 6.41175 17.8135 6.29847 17.8475Z" fill="#22668A"/>
<path d="M6.29847 21.8123C6.03226 21.8916 5.68108 22.2654 5.60179 22.5543C5.47151 23.0584 5.66976 23.5852 6.10022 23.8514L6.31546 23.9873H8.55843H10.7957L11.028 23.8344C11.3791 23.6022 11.5264 23.3246 11.5264 22.8828C11.5264 22.441 11.3791 22.1635 11.028 21.9313L10.7957 21.7783L8.64339 21.767C7.3803 21.7613 6.40608 21.7783 6.29847 21.8123Z" fill="#22668A"/>
</svg>
