<svg width="31" height="28" viewBox="0 0 31 28" fill="none" xmlns="http://www.w3.org/2000/svg">
<g clip-path="url(#clip0_2_97)">
<path d="M30.7333 12.7134L26.1225 8.86532V2.56111H20.8111V4.4329L15.4997 0L0.266583 12.7134C0.052002 12.8929 0.0392546 13.1951 0.238963 13.3884C0.438141 13.5813 0.774353 13.5923 0.989996 13.4133L2.75285 11.942V27.862H11.2511H19.7493H28.2476V11.9415L30.0104 13.4128C30.1124 13.4982 30.2425 13.5403 30.3721 13.5403C30.515 13.5403 30.6568 13.4892 30.7609 13.388C30.9606 13.1951 30.9479 12.8929 30.7333 12.7134ZM21.8734 3.51586H25.0602V7.97884L21.8734 5.31938V3.51586ZM12.3128 26.9072V16.8523C12.3128 16.6055 12.5359 16.405 12.8105 16.405H18.1888C18.4634 16.405 18.6865 16.6055 18.6865 16.8523V26.9072H12.3128V26.9072ZM27.1848 26.9072H19.7488V16.8523C19.7488 16.0789 19.0493 15.4502 18.1888 15.4502H12.8105C11.9501 15.4502 11.2506 16.0789 11.2506 16.8523V26.9072H3.8146V11.055L15.4997 1.30276L23.0844 7.63274L26.1225 10.1681L27.1848 11.0546V26.9072V26.9072Z" fill="black"/>
</g>
<defs>
<clipPath id="clip0_2_97">
<rect width="31" height="27.862" fill="white"/>
</clipPath>
</defs>
</svg>
