<svg width="31" height="31" viewBox="0 0 31 31" fill="none" xmlns="http://www.w3.org/2000/svg">
<g clip-path="url(#clip0_2_38)">
<path d="M30.4556 12.1854L26.5767 9.02415V3.96838C26.5767 3.39905 26.1135 2.9358 25.5442 2.9358H23.1035C22.5342 2.9358 22.0709 3.39905 22.0709 3.96838V5.35175L16.8881 1.12766C16.5132 0.82221 16.019 0.6539 15.4967 0.6539C14.9765 0.6539 14.4847 0.821177 14.1118 1.12504L0.544455 12.1853C-0.0719927 12.6876 -0.0350078 13.1252 0.0418722 13.3413C0.118564 13.5569 0.365538 13.9187 1.15743 13.9187H3.01522V28.4636C3.01522 29.5016 3.85743 30.346 4.89263 30.346H10.7595C11.786 30.346 12.59 29.5191 12.59 28.4636V22.499C12.59 21.9878 13.0598 21.5223 13.5757 21.5223H17.5182C18.0099 21.5223 18.41 21.9605 18.41 22.499V28.4636C18.41 29.484 19.2913 30.346 20.3343 30.346H26.1074C27.1426 30.346 27.9848 29.5015 27.9848 28.4636V13.9187H29.8426C30.6345 13.9187 30.8814 13.5569 30.9581 13.3413C31.035 13.1252 31.072 12.6876 30.4556 12.1854Z" fill="black"/>
</g>
<defs>
<clipPath id="clip0_2_38">
<rect width="31" height="31" fill="white"/>
</clipPath>
</defs>
</svg>
