<svg width="31" height="31" viewBox="0 0 31 31" fill="none" xmlns="http://www.w3.org/2000/svg">
<path d="M26.4687 17.5666C26.0037 12.5033 25.0737 8.62829 23.6271 6.40665C23.5237 6.30329 22.9037 5.58 22.6971 5.32165C22.6454 5.26994 22.5884 5.2324 22.529 5.20679C22.0063 4.69783 21.5284 4.32928 21.0954 4.18494C21.147 3.61659 20.992 2.94494 20.6304 2.32494C19.8554 0.878353 18.1504 0 15.4637 0C12.7771 0 11.0721 0.878354 10.2971 2.325C9.93545 2.945 9.78045 3.61665 9.78045 4.185C9.36709 4.34 8.90209 4.70165 8.28209 5.32165C8.07545 5.58 7.81709 5.78665 7.61045 6.045C7.50709 6.2 7.4038 6.30335 7.35209 6.355C5.90545 8.62835 4.97545 12.5034 4.51045 17.5666C4.09709 21.5966 4.04545 25.8333 4.09709 29.5533C4.09709 29.5709 4.09709 29.5878 4.09709 29.6049C4.09709 29.8393 4.09709 30.0324 4.09709 30.2249C4.09709 30.3007 4.09709 30.3762 4.09709 30.4316C4.09709 30.4517 4.09709 30.4694 4.09709 30.4832C4.09709 30.7416 4.35545 30.9999 4.61374 30.9999H6.68038C6.88703 30.9999 7.09374 30.8965 7.14538 30.6899L8.49976 27.4207C8.58029 27.4959 8.66275 27.5685 8.74703 27.6385V29.9665C8.74703 30.5349 9.21203 30.9999 9.78038 30.9999H21.147C21.7154 30.9999 22.1804 30.5349 22.1804 29.9665V27.6805C22.2826 27.5976 22.3825 27.5112 22.4794 27.4207L23.5693 30.0517L23.7821 30.6899C23.8854 30.8965 24.0404 30.9999 24.2471 30.9999H24.2987H26.3137H26.3654C26.6237 30.9999 26.882 30.7932 26.882 30.4832C26.882 30.4316 26.882 30.3799 26.882 30.2249C26.882 30.0182 26.882 29.8115 26.882 29.5532C26.9854 25.8334 26.8821 21.5966 26.4687 17.5666ZM25.4354 17.7216C25.7283 20.9429 25.8516 24.2993 25.8331 27.435H23.4737L23.2137 26.815C23.2177 26.7178 23.2214 26.6215 23.2252 26.5247C23.2487 26.4665 23.2654 26.4082 23.2654 26.35C23.4721 19.995 23.4204 14.7766 23.2138 10.54C23.1718 9.32252 23.0957 8.27567 23.0133 7.39931C24.198 9.46778 24.9712 13.0797 25.4354 17.7216ZM25.7971 29.9666H24.6087L23.9887 28.4166H25.8222C25.816 28.817 25.8079 29.2141 25.7971 29.605C25.7971 29.7421 25.7971 29.8389 25.7971 29.9666ZM5.54374 17.67C6.00159 13.1424 6.76025 9.56756 7.91784 7.43655C7.83398 8.34802 7.7563 9.39948 7.71374 10.5916C7.61384 13.2883 7.55704 16.4147 7.58441 19.9972C7.59392 22.1086 7.63509 24.3647 7.71374 26.7634L7.45375 27.3834H5.14595C5.12808 24.2676 5.25148 20.8846 5.54374 17.67ZM6.37038 29.9666H5.18209C5.18209 29.8748 5.18209 29.7421 5.18209 29.605C5.18209 29.5878 5.18209 29.5706 5.18209 29.5534C5.18209 29.2041 5.18209 28.8107 5.18209 28.4167H7.02042L6.37038 29.9666ZM21.1471 29.9666H9.78038V28.319C9.97401 28.4177 10.1733 28.5051 10.3776 28.5807C10.382 28.5824 10.3865 28.5841 10.391 28.5858C10.4376 28.6029 10.4844 28.6193 10.5315 28.6352C10.5374 28.6372 10.5432 28.6393 10.5491 28.6413C11.1237 28.8329 11.7343 28.9334 12.3638 28.9334H18.6154C19.5146 28.9334 20.3754 28.7288 21.1471 28.3454V29.9666ZM19.4381 27.8269C19.4185 27.8303 19.399 27.834 19.3794 27.8372C19.3554 27.8412 19.3312 27.8447 19.3071 27.8484C19.2716 27.8536 19.2361 27.8585 19.2004 27.863C19.1843 27.865 19.1682 27.8672 19.1521 27.8691C19.0987 27.8752 19.0452 27.8804 18.9916 27.8848C18.9814 27.8857 18.9711 27.8862 18.9608 27.8869C18.9152 27.8903 18.8694 27.893 18.8237 27.895C18.8093 27.8956 18.7949 27.8962 18.7805 27.8968C18.7255 27.8987 18.6705 27.9001 18.6154 27.9001H12.3637C12.3086 27.9001 12.2534 27.8987 12.1983 27.8968C12.1844 27.8963 12.1705 27.8957 12.1567 27.895C12.1078 27.8929 12.059 27.8901 12.0102 27.8864C12.0038 27.8859 11.9973 27.8855 11.9909 27.885C11.9325 27.8804 11.8743 27.8746 11.8161 27.8677C11.8126 27.8673 11.8091 27.8668 11.8057 27.8664C11.7473 27.8594 11.6889 27.8513 11.6308 27.8421C11.6303 27.842 11.6298 27.8419 11.6294 27.8419C11.1443 27.7644 10.6687 27.6097 10.2221 27.3778C10.2198 27.3766 10.2176 27.3754 10.2154 27.3742C10.1719 27.3516 10.129 27.3277 10.0861 27.3036C10.067 27.2928 10.0479 27.2821 10.029 27.271C10.015 27.2629 10.0012 27.2543 9.98721 27.246C9.51785 26.9641 9.09578 26.5946 8.74709 26.1434C8.6599 23.5065 8.61885 21.0726 8.61589 18.8284C8.61982 15.8799 8.68624 13.2372 8.7988 10.9017C8.89289 8.54873 9.07271 6.71065 9.18212 5.97198C9.53444 5.62166 9.83657 5.36972 10.0223 5.26588C10.1541 5.49881 10.3355 5.76225 10.5555 6.045C11.1755 6.82 11.9505 7.285 12.8805 7.285C13.1905 7.285 13.3972 7.07835 13.3972 6.76835C13.3972 6.45835 13.1905 6.25171 12.8805 6.25171C12.3122 6.25171 11.7955 5.94171 11.3305 5.42506C11.1755 5.21841 11.0205 5.01171 10.9172 4.80506C10.8511 4.67295 10.8272 4.5834 10.8051 4.52225C10.7789 3.98962 10.8886 3.41945 11.1754 2.89341C11.7954 1.70506 13.1388 1.03341 15.4638 1.03341C17.7888 1.03341 19.1322 1.70506 19.7522 2.84177C20.0622 3.41012 20.1655 4.03012 20.1138 4.54677C20.1134 4.54949 20.1135 4.55216 20.1132 4.55488C19.9971 4.76655 19.7182 5.21194 19.5971 5.37341C19.1321 5.89006 18.6154 6.20006 18.0471 6.20006C17.7371 6.20006 17.5304 6.40671 17.5304 6.71671C17.5304 7.02671 17.7371 7.23335 18.0471 7.23335C18.9771 7.23335 19.7521 6.76835 20.3721 5.99335C20.5967 5.73663 20.7814 5.46 20.9139 5.21296C21.1184 5.31801 21.4555 5.57843 21.8187 5.94171C21.8187 5.99335 21.8704 6.56171 21.9221 6.92335C22.0254 7.905 22.1287 9.145 22.1804 10.5917C22.3871 14.7251 22.4388 19.8917 22.2321 26.1434C21.5284 27.054 20.5262 27.6326 19.4381 27.8269Z" fill="black"/>
<path d="M14.6886 6.2H16.2386C16.5486 6.2 16.8586 6.045 17.0653 5.83835L18.3053 4.2367C18.8219 3.56506 18.3569 2.58335 17.4786 2.58335H13.4486C12.5703 2.58335 12.1053 3.565 12.622 4.2367L13.862 5.7867C14.0686 6.045 14.3786 6.2 14.6886 6.2ZM17.4786 3.61664L16.2386 5.16664H14.6886L13.4486 3.61664H17.4786Z" fill="black"/>
<path d="M13.9136 12.4C14.2236 12.4 14.4303 12.1934 14.4303 11.8834V7.75C14.4303 7.44 14.2236 7.23335 13.9136 7.23335C13.6036 7.23335 13.397 7.44 13.397 7.75V11.8834C13.397 12.1934 13.6036 12.4 13.9136 12.4Z" fill="black"/>
<path d="M16.4971 7.75V11.8834C16.4971 12.1934 16.7037 12.4 17.0137 12.4C17.3237 12.4 17.5304 12.1934 17.5304 11.8834V7.75C17.5304 7.44 17.3237 7.23335 17.0137 7.23335C16.7037 7.23335 16.4971 7.44 16.4971 7.75Z" fill="black"/>
<path d="M20.6305 23.7666C19.5455 23.7666 18.5638 22.4233 18.5638 20.6666C18.5638 20.3566 18.3572 20.15 18.0472 20.15H15.4638H12.8805C12.5705 20.15 12.3638 20.3566 12.3638 20.6666C12.3638 22.4233 11.3822 23.7666 10.2972 23.7666C9.98716 23.7666 9.78052 23.9733 9.78052 24.2833V26.35C9.78052 26.66 9.98716 26.8666 10.2972 26.8666H15.4638H20.6305C20.9405 26.8666 21.1471 26.66 21.1471 26.35V24.2834C21.1472 23.9734 20.9405 23.7666 20.6305 23.7666ZM10.8138 24.7484C12.1572 24.4384 13.1905 22.9917 13.3972 21.1834H14.9472V25.8334H10.8138V24.7484ZM20.1138 25.8334H15.9805V21.1834H17.5305C17.7371 22.9917 18.7705 24.4384 20.1138 24.7484V25.8334Z" fill="black"/>
</svg>
