<svg width="27" height="30" viewBox="0 0 27 30" fill="none" xmlns="http://www.w3.org/2000/svg">
<path d="M10.4361 0.70567C9.67935 0.887822 8.85578 1.16105 8.58867 1.29766C7.96543 1.6392 7.25315 2.86873 7.25315 3.6201C7.25315 4.14379 7.05282 4.32594 5.58374 5.05455C4.35951 5.64655 3.75853 6.10193 3.35787 6.71669C2.06686 8.72036 1.06522 14.7086 0.864892 21.3799C0.753599 25.4101 0.775857 25.8882 1.10974 26.0248C1.31007 26.1159 1.46588 26.4119 1.46588 26.7762C1.46588 27.1177 1.57717 27.5048 1.73298 27.6642C2.06686 28.0057 5.606 28.0285 5.80633 27.7097C6.05118 27.2999 6.3628 27.482 6.3628 28.0513C6.3628 28.37 6.56313 28.8254 6.80797 29.0759C7.23089 29.5085 7.54251 29.5312 13.4856 29.5312C19.4287 29.5312 19.7403 29.5085 20.1632 29.0759C20.4081 28.8254 20.6084 28.37 20.6084 28.0513C20.6084 27.482 20.92 27.2999 21.1649 27.7097C21.3652 28.0285 24.9043 28.0057 25.2382 27.6642C25.394 27.5048 25.5053 27.1405 25.5053 26.8445C25.5053 26.5485 25.6611 26.1387 25.8615 25.9337C26.1953 25.615 26.2176 25.0685 26.1063 21.2206C25.9282 15.3917 25.3272 11.0883 24.6817 11.0883C24.4146 11.0883 24.3701 11.2933 24.4592 12.0446C25.0379 16.7123 25.2827 19.399 25.3272 22.1313L25.394 25.319L23.5465 25.3873L21.6768 25.4556L21.7658 18.6704C21.8549 12.5456 21.8994 11.6803 22.3668 9.76774C22.6339 8.62929 22.9678 7.67299 23.0569 7.67299C23.1681 7.67299 23.3907 8.08283 23.5243 8.58375C23.8582 9.67666 24.3256 10.1776 24.5259 9.65389C24.704 9.17575 24.2588 7.76407 23.5911 6.71669C23.2127 6.10193 22.6339 5.64655 21.3874 5.05455C19.8961 4.32594 19.718 4.16656 19.718 3.59734C19.718 2.48165 18.85 1.45705 17.4922 1.00167C15.8673 0.432441 12.2614 0.295827 10.4361 0.70567ZM16.6463 1.59366L17.6925 1.86689L17.2473 2.5955L16.7799 3.34688H13.4856H10.1913L9.72387 2.5955L9.27869 1.86689L10.3249 1.59366C10.9036 1.45705 12.3281 1.3432 13.4856 1.3432C14.6431 1.3432 16.0676 1.45705 16.6463 1.59366ZM10.1245 4.41702L11.282 5.8287L9.87968 5.25947C7.98769 4.5081 7.80962 4.30317 8.1435 3.23303C8.36609 2.54996 8.45512 2.43612 8.67771 2.68657C8.83352 2.86873 9.47902 3.64287 10.1245 4.41702ZM19.0503 3.93887C19.0503 4.34871 18.5606 4.66748 17.0915 5.25947L15.7337 5.80593L17.1138 4.12102L18.4938 2.41335L18.7609 3.05088C18.9167 3.39241 19.028 3.80226 19.0503 3.93887ZM15.6002 4.25764C15.7337 4.46256 13.7972 6.53454 13.4856 6.53454C13.4188 6.53454 12.8846 6.07916 12.2836 5.55547C11.6159 4.94071 11.2375 4.46256 11.3488 4.30317C11.5491 3.96164 15.3998 3.93887 15.6002 4.25764ZM8.09898 5.39609C8.29931 5.5327 9.23418 5.91978 10.1468 6.28408L11.8162 6.92161L11.883 9.47174C11.9275 11.7486 11.9943 12.0219 12.3281 11.9536C12.6398 11.8853 12.7065 11.5437 12.7733 9.65389L12.8401 7.4453H13.4856C14.1311 7.4453 14.1534 7.49084 14.1534 8.51544C14.1534 9.13021 14.2424 9.74497 14.3537 9.92712C14.7321 10.5419 15.0437 9.90435 15.0437 8.46991V7.03546L16.5573 6.42069C17.3809 6.07916 18.3825 5.64655 18.7609 5.46439C19.4287 5.14563 19.5845 5.14563 20.4971 5.5327C21.0536 5.78316 21.6991 6.1247 21.9662 6.32962L22.4336 6.69392L21.8549 8.53821C21.0981 11.02 20.831 14.1622 20.831 20.9246V26.5713L20.3413 26.6851C20.0519 26.7534 16.7799 26.7762 13.0404 26.7534L6.25151 26.6851L6.14021 24.8181C6.07344 23.7935 5.96214 22.9055 5.87311 22.8144C5.51697 22.4501 5.24986 23.0421 5.24986 24.2033V25.4556L3.42465 25.3873L1.57717 25.319L1.62169 22.359C1.73298 17.236 2.44526 11.612 3.38013 8.74313C3.8253 7.35422 4.04789 7.53638 4.62662 9.88158C4.98276 11.2705 5.09405 12.7049 5.18309 16.5984C5.27212 20.4009 5.36116 21.5621 5.58374 21.5621C6.05118 21.5621 6.14021 20.9929 6.14021 18.0784C6.14021 14.0939 5.76181 10.6785 5.11631 8.56098C4.78243 7.51361 4.62662 6.62562 4.73791 6.51177C5.02728 6.21577 7.09734 5.19117 7.43122 5.19117C7.58703 5.1684 7.87639 5.28224 8.09898 5.39609ZM5.20535 26.7307C5.13857 27.0722 4.84921 27.1633 3.73627 27.2088C2.46752 27.2771 2.35623 27.2316 2.35623 26.799C2.35623 26.3891 2.48978 26.3436 3.8253 26.3436C5.09405 26.3436 5.27212 26.3891 5.20535 26.7307ZM24.615 26.799C24.615 27.2316 24.5037 27.2771 23.2349 27.2088C22.122 27.1633 21.8326 27.0722 21.7658 26.7307C21.6991 26.3891 21.8771 26.3436 23.1459 26.3436C24.4814 26.3436 24.615 26.3891 24.615 26.799ZM19.6735 28.1196C19.6067 28.4839 19.1393 28.5066 13.4856 28.5066C7.83188 28.5066 7.36444 28.4839 7.29767 28.0968C7.23089 27.7325 7.63155 27.7097 13.4856 27.7097C19.3396 27.7097 19.7403 27.7325 19.6735 28.1196Z" fill="white"/>
<path d="M9.74612 18.1923C9.54579 18.4655 8.87803 19.2397 8.25478 19.9227L7.14185 21.1523V23.0421C7.14185 24.2944 7.25314 25.023 7.45347 25.2734C7.72057 25.615 8.43285 25.6605 13.4856 25.6605C18.5383 25.6605 19.2506 25.615 19.5177 25.2734C19.718 25.023 19.8293 24.2944 19.8293 23.0421V21.1523L18.7164 19.9227C18.1154 19.2397 17.4254 18.4655 17.2251 18.1923C16.8467 17.7141 16.6463 17.6914 13.4856 17.6914C10.3248 17.6914 10.1245 17.7141 9.74612 18.1923ZM17.136 19.4673C17.4476 19.9455 18.0264 20.5603 18.3825 20.8563C19.028 21.3344 19.0503 21.4255 19.0503 23.0421V24.7498H13.4856H7.9209V23.0421C7.9209 21.4255 7.94316 21.3344 8.58866 20.8563C8.9448 20.5603 9.52353 19.9455 9.83515 19.4673L10.4361 18.6021H13.4856H16.535L17.136 19.4673Z" fill="white"/>
</svg>
