<svg width="31" height="31" viewBox="0 0 31 31" fill="none" xmlns="http://www.w3.org/2000/svg">
<path d="M23.6322 6.40047C23.6157 6.37879 23.2158 5.86366 22.7001 5.33563C22.6997 5.33509 22.6997 5.3346 22.6997 5.3346C22.1665 4.78847 21.7133 4.44232 21.3134 4.2651L21.1305 4.8133C21.0763 4.94662 20.0972 7.23335 18.0574 7.23335C17.7717 7.23335 17.5408 7.00188 17.5408 6.71671C17.5408 6.43153 17.7717 6.20006 18.0574 6.20006C19.4167 6.20006 20.1566 4.46818 20.1638 4.45062L20.7864 2.58129C20.6464 2.27959 20.462 1.97268 20.2068 1.67921C19.2384 0.564721 17.6461 0 15.474 0C13.3014 0 11.7091 0.564721 10.7409 1.67915C10.356 2.12247 10.1214 2.59673 9.97978 3.0354L10.7558 4.39371C10.7662 4.41229 10.7754 4.43143 10.7837 4.45056C10.791 4.46709 11.5412 6.2 12.8907 6.2C13.1759 6.2 13.4073 6.43147 13.4073 6.71665C13.4073 7.00182 13.1759 7.23329 12.8907 7.23329C10.9568 7.23329 9.97615 5.179 9.8444 4.88195L9.52459 4.32238C9.1443 4.52903 8.74342 4.88093 8.30064 5.33454C8.30064 5.33454 8.30009 5.33509 8.30009 5.33557H8.29955C7.78441 5.86415 7.38456 6.37873 7.36797 6.40041C7.36591 6.40301 7.36537 6.4061 7.36331 6.40864C7.35453 6.42003 7.34472 6.43244 7.34109 6.43759C4.23334 11.2839 4.05043 23.4819 4.1114 28.4099C4.1114 28.4445 4.11194 28.4791 4.11243 28.5132C4.11243 28.5225 4.11243 28.5318 4.11297 28.5411C4.1269 29.747 4.15741 30.4962 4.1579 30.505C4.16989 30.7814 4.39718 31 4.67412 31H4.67618H6.74077H6.74283C6.95159 31 7.14013 30.8739 7.22024 30.6812L8.55893 27.4484C8.62505 27.5089 8.68808 27.573 8.75734 27.6298V29.9666C8.75734 30.5365 9.22077 31 9.79069 31H21.1573C21.7272 31 22.1907 30.5366 22.1907 29.9666V27.6685C22.277 27.5988 22.3586 27.5233 22.4413 27.4484L23.78 30.6812C23.8601 30.8739 24.0482 31 24.2574 31H26.324C26.3933 31 26.4594 30.9866 26.5199 30.9612C26.557 30.9463 26.5875 30.9194 26.6201 30.8962C26.6397 30.8817 26.664 30.8729 26.6816 30.8558C26.7203 30.8187 26.7493 30.7726 26.7751 30.7241C26.7802 30.7148 26.789 30.7086 26.7932 30.6988C26.8081 30.6662 26.8113 30.628 26.819 30.5923C26.8257 30.5629 26.8386 30.536 26.8402 30.505C26.8402 30.5019 26.8438 30.4027 26.8495 30.2364C26.8506 30.2028 26.8516 30.1697 26.8526 30.1305C26.8537 30.1052 26.8542 30.0804 26.8552 30.053C26.9409 27.1978 27.2184 11.9887 23.6322 6.40047ZM6.39565 29.9666H5.17739C5.16806 29.6132 5.1562 29.0831 5.14947 28.4166H7.03739L6.39565 29.9666ZM7.58346 18.4202C7.58346 18.647 7.58346 18.8723 7.584 19.1058C7.58764 21.3657 7.62584 23.9108 7.72042 26.7721L7.46727 27.3834H5.1433C5.13397 22.197 5.45172 11.8508 7.96999 7.39144C7.80209 9.31962 7.58406 12.8723 7.58303 18.305C7.58297 18.3422 7.58346 18.3825 7.58346 18.4202ZM12.6421 4.26196C12.3915 3.94935 12.3435 3.53037 12.5171 3.1692C12.6907 2.80804 13.0478 2.58329 13.4487 2.58329H17.4989C17.8998 2.58329 18.2568 2.80804 18.4304 3.1692C18.604 3.53037 18.556 3.94935 18.3054 4.2625L17.0659 5.81195V5.8125C16.8686 6.05893 16.5741 6.2 16.2589 6.2H14.6887C14.3735 6.2 14.079 6.05893 13.8817 5.8125L12.6421 4.26196ZM17.5407 7.75V11.8834C17.5407 12.1685 17.3092 12.4 17.024 12.4C16.7383 12.4 16.5074 12.1685 16.5074 11.8834V7.75C16.5074 7.46482 16.7383 7.23335 17.024 7.23335C17.3092 7.23335 17.5407 7.46482 17.5407 7.75ZM13.4073 7.75C13.4073 7.46482 13.6383 7.23335 13.924 7.23335C14.2092 7.23335 14.4406 7.46482 14.4406 7.75V11.8834C14.4406 12.1685 14.2092 12.4 13.924 12.4C13.6383 12.4 13.4073 12.1685 13.4073 11.8834V7.75ZM21.1573 29.9666H9.79069V28.3061C9.79172 28.3066 9.79275 28.3071 9.79433 28.3077C9.93383 28.379 10.079 28.4389 10.2242 28.4988C10.2909 28.5262 10.3554 28.5592 10.4226 28.5841C10.4996 28.6125 10.5797 28.6316 10.6577 28.6564C11.0008 28.7665 11.3516 28.8517 11.7112 28.8941C11.9302 28.9199 12.1514 28.9333 12.374 28.9333H18.6262C19.2912 28.9333 19.9422 28.817 20.5576 28.5917C20.7622 28.5173 20.9626 28.4316 21.1574 28.3344V29.9666H21.1573ZM21.1573 26.35C21.1573 26.6352 20.9259 26.8666 20.6407 26.8666H15.474H10.3074C10.0217 26.8666 9.79076 26.6352 9.79076 26.35V24.2834C9.79076 23.9982 10.0217 23.7667 10.3074 23.7667C11.4275 23.7667 12.374 22.3469 12.374 20.6667C12.374 20.3815 12.605 20.1501 12.8907 20.1501H15.474H18.0574C18.3426 20.1501 18.574 20.3815 18.574 20.6667C18.574 22.3469 19.5201 23.7667 20.6407 23.7667C20.9259 23.7667 21.1573 23.9982 21.1573 24.2834V26.35ZM25.8228 29.9666H24.6025L23.9608 28.4166H25.8502C25.8435 29.0837 25.8322 29.6133 25.8228 29.9666ZM25.8564 27.3834H23.533L23.2799 26.7721C23.3858 23.5497 23.423 20.7158 23.4168 18.2549C23.4142 12.8614 23.1977 9.32531 23.0303 7.40077C25.5438 11.9087 25.8642 22.212 25.8564 27.3834Z" fill="black"/>
<path d="M10.8237 24.7427V25.8333H14.9571V21.1833H13.3828C13.2133 22.9922 12.1624 24.4419 10.8237 24.7427Z" fill="black"/>
<path d="M17.5648 21.1832H15.9905V25.8332H20.1238V24.7425C18.7851 24.4418 17.7342 22.9925 17.5648 21.1832Z" fill="black"/>
<path d="M16.2589 5.16664L17.4989 3.61664H13.4487L14.6887 5.16664H16.2589Z" fill="black"/>
</svg>
