<svg width="29" height="30" viewBox="0 0 29 30" fill="none" xmlns="http://www.w3.org/2000/svg">
<g clip-path="url(#clip0_411_38)">
<path d="M3.06847 0.0909357C1.67864 0.394278 0.439218 1.65011 0.150421 3.06369C0.0180562 3.70071 0.0180562 25.42 0.150421 26.057C0.373036 27.143 1.17926 28.1986 2.16598 28.69C3.07449 29.139 2.85789 29.1268 9.19939 29.1086C14.8008 29.0904 14.855 29.0904 15.0174 28.963C15.3363 28.7264 15.4326 28.5323 15.4326 28.1501C15.4326 27.7679 15.3363 27.5737 15.0174 27.3371C14.855 27.2097 14.7948 27.2097 9.12719 27.1794L3.39939 27.149L3.02034 26.9428C2.59918 26.7122 2.41868 26.5242 2.17802 26.0631L2.01557 25.7537V14.5604V3.36703L2.15395 3.09402C2.36453 2.65721 2.60519 2.4024 3.02034 2.17793L3.39939 1.97166L9.12719 1.94132C14.7948 1.91099 14.855 1.91099 15.0174 1.78358C15.3363 1.54698 15.4326 1.35284 15.4326 0.970628C15.4326 0.588417 15.3363 0.394278 15.0174 0.157671C14.855 0.0302673 14.8069 0.0302673 9.15727 0.0181336C4.47636 0.0120668 3.38735 0.0242004 3.06847 0.0909357Z" fill="#22668A"/>
<path d="M8.8504 6.88572C7.44252 7.19513 6.21513 8.44489 5.92633 9.85847C5.40891 12.3701 7.37633 14.6877 9.89729 14.5421C10.884 14.4814 11.6902 14.1174 12.3942 13.4076C13.0981 12.6977 13.4591 11.8848 13.5193 10.8898C13.6637 8.34176 11.3353 6.34577 8.8504 6.88572ZM10.5952 8.98484C10.9983 9.20325 11.1848 9.39739 11.4195 9.8524C11.5519 10.1133 11.5759 10.2407 11.5759 10.6775C11.5819 11.1507 11.5639 11.2235 11.3774 11.5754C11.1487 12.0001 10.9562 12.1821 10.505 12.4247C10.2463 12.5582 10.1199 12.5825 9.68671 12.5825C9.25351 12.5825 9.12716 12.5582 8.86845 12.4247C8.41721 12.1821 8.22467 12.0001 7.99604 11.5754C7.80953 11.2235 7.79148 11.1507 7.7975 10.6775C7.7975 10.1133 7.90579 9.80993 8.23671 9.39739C8.41721 9.17898 8.91658 8.86957 9.22945 8.7907C9.60849 8.68757 10.2041 8.77857 10.5952 8.98484Z" fill="#22668A"/>
<path d="M21.8102 7.85052C21.5875 7.94759 21.389 8.16599 21.3048 8.39047C21.2626 8.4936 21.2386 9.16096 21.2386 10.1013V11.6423L19.6201 11.6605C18.0919 11.6787 17.9896 11.6848 17.8332 11.8061C17.7429 11.8728 17.6106 12.0063 17.5444 12.0973C17.424 12.2611 17.418 12.3339 17.418 14.5604C17.418 16.787 17.424 16.8598 17.5444 17.0236C17.6106 17.1146 17.7429 17.2481 17.8332 17.3148C17.9896 17.4361 18.0919 17.4422 19.6201 17.4604L21.2386 17.4786V19.0256C21.2386 20.7244 21.2566 20.8457 21.5936 21.1308C21.8162 21.3128 22.105 21.3856 22.4299 21.325C22.6284 21.2946 23.0195 20.9124 25.7631 18.152C28.5006 15.3855 28.8797 14.9912 28.9098 14.7849C29.012 14.2268 29.1264 14.3663 25.8232 11.0174C24.0784 9.25803 22.6886 7.89905 22.5803 7.85052C22.3396 7.74738 22.0448 7.74738 21.8102 7.85052ZM24.9087 16.2895L23.194 18.0185L23.1639 17.0842C23.1338 16.065 23.1037 15.974 22.7187 15.6889C22.5622 15.5675 22.46 15.5615 20.9317 15.5433L19.3133 15.5251V14.5604V13.5958L20.9317 13.5776C22.46 13.5594 22.5622 13.5533 22.7187 13.432C23.1037 13.1408 23.1338 13.0619 23.1519 12.0306L23.1699 11.0841L24.8967 12.8193L26.6234 14.5604L24.9087 16.2895Z" fill="#22668A"/>
<path d="M6.16702 15.8284C5.86018 15.9679 5.13818 16.7445 4.78922 17.3087C4.48238 17.8123 4.1996 18.4917 4.04918 19.0863C3.97097 19.4018 3.9469 19.7779 3.9469 20.6091C3.94088 21.8164 3.95292 21.871 4.35603 22.1683C4.51848 22.2957 4.56059 22.2957 9.68673 22.2957C14.8129 22.2957 14.855 22.2957 15.0174 22.1683C15.4205 21.871 15.4326 21.8164 15.4266 20.6091C15.4266 19.42 15.3664 19.0499 15.0656 18.2673C14.5722 17.0114 13.4411 15.7192 12.8274 15.7131C12.7492 15.7131 12.4363 15.8223 12.1235 15.9558C11.227 16.338 10.6434 16.4594 9.68673 16.4594C8.73009 16.4594 8.1525 16.3441 7.26204 15.9558C6.62428 15.6828 6.50997 15.6707 6.16702 15.8284ZM7.28009 18.0428C8.18258 18.334 8.63383 18.4007 9.68673 18.4007C10.7396 18.4007 11.1788 18.334 12.1114 18.0367L12.5867 17.8851L12.7311 18.0246C13.0741 18.3461 13.5374 19.6202 13.5374 20.239V20.3846H9.68673H5.83611V20.1844C5.83611 19.8204 6.01059 19.1652 6.22719 18.7162C6.42574 18.2976 6.7025 17.8972 6.78673 17.8972C6.8108 17.8972 7.03341 17.9639 7.28009 18.0428Z" fill="#22668A"/>
</g>
<defs>
<clipPath id="clip0_411_38">
<rect width="29" height="29.1208" fill="white"/>
</clipPath>
</defs>
</svg>
