<svg width="31" height="31" viewBox="0 0 31 31" fill="none" xmlns="http://www.w3.org/2000/svg">
<path d="M26.4619 4.53309C20.4179 -1.51103 10.5833 -1.51103 4.53931 4.53309C2.41872 6.65369 0.968149 9.31781 0.344284 12.2376C-0.263073 15.0805 -0.0641258 18.0261 0.919569 20.7555C1.03776 21.0832 1.39938 21.2532 1.72703 21.1351C2.05489 21.0169 2.22482 20.6554 2.10663 20.3276C1.20285 17.8199 1.02009 15.1136 1.57824 12.5011C2.151 9.82012 3.48348 7.37324 5.43153 5.4252C10.9836 -0.126918 20.0175 -0.126918 25.5697 5.4252C28.2137 8.06935 29.6938 11.584 29.7372 15.3221C29.7807 19.0533 28.3901 22.5961 25.822 25.2976C25.7916 25.3296 25.7616 25.3618 25.7315 25.3939C25.6783 25.4508 25.6252 25.5078 25.5697 25.5633C20.0175 31.1155 10.9836 31.1155 5.43153 25.5633C5.40198 25.5338 5.37317 25.5037 5.34467 25.4736C5.3432 25.4154 5.34194 25.358 5.34194 25.3014C5.34194 25.1744 5.34435 25.0479 5.34898 24.9218C5.35056 24.8796 5.35371 24.8379 5.35582 24.7958C5.35992 24.712 5.36381 24.6282 5.36991 24.5448C5.37359 24.4951 5.37895 24.4459 5.38337 24.3964C5.38999 24.3212 5.39619 24.246 5.4044 24.1712C5.41018 24.1184 5.41775 24.0661 5.42438 24.0135C5.43331 23.9425 5.44183 23.8713 5.45235 23.8007C5.46034 23.7468 5.4698 23.6935 5.47863 23.64C5.48989 23.5711 5.50082 23.5023 5.51354 23.4338C5.52353 23.3797 5.535 23.326 5.54593 23.2722C5.5595 23.205 5.57285 23.1377 5.58778 23.0709C5.59987 23.0168 5.61333 22.9629 5.62627 22.9091C5.64204 22.8434 5.65771 22.7777 5.67474 22.7125C5.68894 22.6584 5.70429 22.6048 5.71922 22.5511C5.7372 22.4867 5.75508 22.4222 5.77432 22.3583C5.79041 22.3047 5.80765 22.2515 5.82469 22.1983C5.84488 22.1351 5.86507 22.0718 5.88641 22.0091C5.9045 21.9562 5.92343 21.9036 5.94235 21.8511C5.96475 21.7888 5.98725 21.7266 6.01081 21.6647C6.03079 21.6125 6.0515 21.5607 6.07232 21.5089C6.09682 21.4478 6.12153 21.3867 6.14719 21.3261C6.16906 21.2746 6.19156 21.2235 6.21428 21.1724C6.24088 21.1124 6.2678 21.0525 6.29556 20.9931C6.31922 20.9425 6.3434 20.8923 6.3679 20.8421C6.39671 20.7831 6.42584 20.7243 6.4557 20.6659C6.48105 20.6165 6.50681 20.5673 6.53299 20.5183C6.56391 20.4602 6.59535 20.4024 6.62742 20.3449C6.65444 20.2965 6.68178 20.2483 6.70954 20.2005C6.74256 20.1436 6.7761 20.087 6.81028 20.0307C6.83898 19.9834 6.868 19.9362 6.89745 19.8894C6.93257 19.8336 6.96821 19.7782 7.00439 19.7232C7.03467 19.677 7.06516 19.6311 7.09618 19.5855C7.1333 19.5308 7.17126 19.4767 7.20954 19.4228C7.2414 19.3779 7.27326 19.3331 7.30586 19.2888C7.34508 19.2354 7.38514 19.1825 7.42541 19.1299C7.45875 19.0864 7.49197 19.0429 7.52604 18.9999C7.56737 18.9476 7.60964 18.896 7.65202 18.8446C7.68661 18.8025 7.72121 18.7604 7.75654 18.7189C7.80007 18.6678 7.84455 18.6174 7.88913 18.5672C7.92509 18.5266 7.96085 18.4859 7.99744 18.4459C8.04307 18.3961 8.08966 18.3472 8.13634 18.2983C8.17357 18.2592 8.21058 18.22 8.24844 18.1814C8.29628 18.1328 8.34518 18.0853 8.39397 18.0375C8.43224 18.0002 8.4702 17.9624 8.50911 17.9256C8.55937 17.8781 8.61079 17.8317 8.662 17.7853C8.70111 17.7498 8.7397 17.714 8.77935 17.6791C8.83224 17.6325 8.8865 17.5873 8.94044 17.5417C8.97998 17.5084 9.01909 17.4745 9.05916 17.4417C9.11499 17.3961 9.17219 17.3518 9.22919 17.3072C9.26893 17.2762 9.30805 17.2445 9.34822 17.214C9.40826 17.1684 9.46956 17.1245 9.53076 17.0803C9.56935 17.0524 9.60721 17.0238 9.64632 16.9963C9.71383 16.9489 9.78292 16.9031 9.85179 16.8572C9.88575 16.8346 9.91898 16.8111 9.95316 16.7888C10.043 16.7305 10.1343 16.674 10.2263 16.6183C10.2406 16.6097 10.2545 16.6004 10.2689 16.5918C10.3753 16.5281 10.4832 16.4662 10.5924 16.4061C10.6297 16.3856 10.6681 16.3663 10.7058 16.3463C10.7783 16.3076 10.8505 16.2686 10.9242 16.2315C10.9714 16.2078 11.0198 16.1855 11.0674 16.1625C11.1276 16.1333 11.1875 16.1039 11.2484 16.0758C12.3919 17.1681 13.9174 17.7865 15.5008 17.7865C17.0841 17.7865 18.6097 17.168 19.7532 16.0756C21.9855 17.1087 23.8125 18.9624 24.8044 21.2167C24.9446 21.5355 25.3168 21.6805 25.6359 21.5401C25.9548 21.3997 26.0996 21.0274 25.9593 20.7086C24.8743 18.2428 22.9855 16.2723 20.5946 15.0829C21.2883 14.0653 21.6636 12.8637 21.6636 11.6238C21.6636 8.2256 18.8989 5.46095 15.5008 5.46095C15.1524 5.46095 14.8698 5.74349 14.8698 6.09186C14.8698 6.44023 15.1524 6.72277 15.5008 6.72277C18.2033 6.72277 20.4018 8.92139 20.4018 11.6238C20.4018 12.8322 19.9527 13.9958 19.1373 14.9C19.1372 14.9001 19.1371 14.9002 19.137 14.9003C18.206 15.9327 16.8807 16.5248 15.5006 16.5248C14.1206 16.5248 12.7952 15.9327 11.8643 14.9003C11.8642 14.9001 11.864 14.9 11.8638 14.8999C11.0485 13.9954 10.5995 12.8321 10.5995 11.6239C10.5995 10.3049 11.1159 9.06745 12.0537 8.1398C12.3014 7.89469 12.3035 7.49522 12.0584 7.24758C11.8134 6.99974 11.4139 6.99785 11.1662 7.24275C9.98712 8.40888 9.3377 9.96481 9.3377 11.6235C9.3377 12.8622 9.71204 14.0629 10.4046 15.0799C10.3984 15.083 10.3924 15.0863 10.3863 15.0895C10.3371 15.1141 10.289 15.1402 10.2402 15.1653C10.1655 15.204 10.0905 15.2425 10.0168 15.2828C9.96462 15.3111 9.91362 15.341 9.86199 15.3701C9.79312 15.4091 9.72414 15.448 9.65621 15.4882C9.60353 15.5196 9.55169 15.5519 9.49953 15.584C9.43434 15.6242 9.36914 15.6642 9.3049 15.7056C9.25242 15.7393 9.2009 15.774 9.14906 15.8085C9.08671 15.85 9.02446 15.8918 8.96305 15.9345C8.91142 15.9704 8.86042 16.0071 8.80942 16.0438C8.74948 16.0871 8.68976 16.1305 8.63077 16.1748C8.58019 16.2127 8.53024 16.2512 8.4804 16.2899C8.42257 16.3348 8.36515 16.38 8.30837 16.426C8.25916 16.4657 8.21037 16.506 8.16179 16.5465C8.10596 16.5932 8.05054 16.6404 7.99565 16.6881C7.94802 16.7294 7.9007 16.7711 7.8538 16.8132C7.79965 16.8619 7.74623 16.9111 7.69313 16.9608C7.64728 17.0036 7.60154 17.0465 7.55633 17.0901C7.50386 17.1408 7.45223 17.1922 7.4007 17.2438C7.35675 17.2879 7.3128 17.3318 7.26968 17.3765C7.21869 17.4294 7.16863 17.4833 7.11869 17.5371C7.07694 17.5821 7.03488 17.6269 6.99387 17.6726C6.94392 17.7282 6.89534 17.7848 6.84655 17.8413C6.80733 17.8867 6.76779 17.9317 6.72931 17.9777C6.67978 18.0369 6.63183 18.0972 6.58357 18.1574C6.54771 18.2022 6.51112 18.2464 6.47589 18.2917C6.42521 18.3569 6.37621 18.4233 6.327 18.4896C6.29608 18.5312 6.26433 18.5721 6.23404 18.6142C6.17179 18.7004 6.11154 18.7879 6.05182 18.8758C6.03615 18.8989 6.01953 18.9214 6.00397 18.9447C5.92963 19.0557 5.85739 19.168 5.78704 19.2816C5.76275 19.3208 5.73994 19.3609 5.71617 19.4003C5.67064 19.4759 5.6249 19.5514 5.58105 19.628C5.55371 19.6759 5.52784 19.7246 5.50124 19.7728C5.46286 19.8422 5.42427 19.9114 5.38747 19.9817C5.36013 20.0337 5.33426 20.0864 5.30766 20.1389C5.27338 20.2066 5.23899 20.2742 5.20608 20.3427C5.1799 20.3971 5.15498 20.4522 5.12964 20.507C5.09851 20.5746 5.06728 20.6421 5.03742 20.7104C5.01281 20.7666 4.98926 20.8234 4.9656 20.8801C4.9371 20.9481 4.90882 21.0162 4.88169 21.0847C4.85887 21.1423 4.837 21.2003 4.81513 21.2582C4.78926 21.327 4.76371 21.3959 4.7391 21.4652C4.71828 21.5239 4.69809 21.583 4.67811 21.6422C4.65466 21.7117 4.63185 21.7815 4.60976 21.8516C4.59094 21.9112 4.57275 21.971 4.55488 22.031C4.53385 22.1017 4.51355 22.1727 4.49389 22.244C4.47727 22.3042 4.46098 22.3644 4.44531 22.425C4.4267 22.497 4.40903 22.5694 4.39179 22.6419C4.37738 22.7025 4.36308 22.7629 4.34972 22.8237C4.33353 22.8972 4.31849 22.9711 4.30377 23.0452C4.29168 23.1057 4.27938 23.1663 4.26823 23.2272C4.25446 23.3027 4.24205 23.3786 4.22975 23.4546C4.22007 23.5146 4.20987 23.5744 4.20114 23.6345C4.18968 23.713 4.18001 23.7918 4.17013 23.8707C4.16287 23.9292 4.15488 23.9875 4.14846 24.0462C4.13942 24.1289 4.13248 24.212 4.12523 24.2952C4.12039 24.3506 4.11461 24.4058 4.11061 24.4616C4.10388 24.5544 4.09946 24.6477 4.09494 24.7411C4.09273 24.7874 4.08926 24.8335 4.08758 24.88C4.08253 25.02 4.07969 25.1606 4.07969 25.3017C4.07969 25.4541 4.08485 25.5981 4.09105 25.7572C4.09252 25.794 4.09768 25.8298 4.10504 25.8647C4.10567 25.8674 4.10598 25.8702 4.10661 25.8729C4.11439 25.9073 4.12533 25.9403 4.13847 25.9723C4.13974 25.9754 4.14089 25.9786 4.14226 25.9817C4.15582 26.0133 4.17202 26.0434 4.19031 26.072C4.19263 26.0755 4.19484 26.0791 4.19715 26.0826C4.21597 26.1107 4.2369 26.137 4.25971 26.1617C4.2614 26.1634 4.26255 26.1656 4.26424 26.1674L4.34752 26.2561C4.4104 26.3234 4.47328 26.3905 4.53889 26.456C7.56095 29.478 11.5305 30.9891 15.5002 30.9891C19.4699 30.9891 23.4395 29.478 26.4616 26.456C26.5272 26.3905 26.5901 26.3233 26.6529 26.2561L26.7362 26.1674C29.5321 23.2262 31.0459 19.3697 30.9987 15.3079C30.9516 11.238 29.3403 7.41152 26.4619 4.53309Z" fill="black"/>
</svg>
