<svg width="31" height="31" viewBox="0 0 31 31" fill="none" xmlns="http://www.w3.org/2000/svg">
<path d="M26.4171 4.53175C23.4961 1.61072 19.6099 0 15.4744 0C11.339 0 7.45278 1.61072 4.53175 4.53175C1.61072 7.45278 0 11.339 0 15.4744C0 19.6099 1.61072 23.4961 4.53175 26.4171C7.45278 29.3381 11.339 30.9489 15.4744 30.9489C19.6099 30.9489 23.4961 29.3381 26.4171 26.4171C29.3381 23.4961 30.9489 19.6099 30.9489 15.4744C30.9489 11.339 29.3381 7.45278 26.4171 4.53175ZM15.4744 10.4058C14.4965 10.4058 13.7039 11.1984 13.7039 12.1763C13.7039 12.6237 13.3396 12.988 12.8922 12.988C12.4447 12.988 12.0804 12.6237 12.0804 12.1763C12.0804 10.3035 13.6016 8.78227 15.4744 8.78227C15.9219 8.78227 16.2862 9.1466 16.2862 9.59402C16.2862 10.0414 15.9219 10.4058 15.4744 10.4058ZM24.0458 23.9499C23.1445 20.6965 21.4379 17.8586 18.3443 16.7911C19.8847 15.8324 20.9074 14.1258 20.9074 12.1763C20.9074 9.17216 18.4722 6.7433 15.4744 6.7433C12.4767 6.7433 10.0414 9.17856 10.0414 12.1763C10.0414 14.1258 11.0641 15.8324 12.6045 16.7911C9.51093 17.8586 7.80433 20.6965 6.90309 23.9499C4.74907 21.7703 3.4132 18.7726 3.4132 15.4744C3.4132 8.82062 8.82701 3.4132 15.4744 3.4132C22.1282 3.4132 27.5357 8.82701 27.5357 15.4744C27.5357 18.779 26.2062 21.7703 24.0458 23.9499Z" fill="black"/>
</svg>
