<svg width="29" height="29" viewBox="0 0 29 29" fill="none" xmlns="http://www.w3.org/2000/svg">
<path d="M9.85547 0.0622175C9.62324 0.158507 9.40234 0.402061 9.34004 0.634288C9.22676 1.05909 9.46465 1.4669 9.96875 1.72745C10.065 1.77843 10.1387 1.83507 10.1387 1.86339C10.1387 1.88605 9.91777 1.988 9.6459 2.09562C7.73711 2.81495 5.7377 4.2423 4.39531 5.82823C2.71875 7.82198 1.72188 10.0253 1.31973 12.6308C1.18379 13.5314 1.18379 15.4685 1.31973 16.3691C2.06738 21.2288 5.16563 25.137 9.68555 26.9269C10.4559 27.2271 11.7133 27.5726 12.2344 27.6179C12.5572 27.6462 12.6252 27.6349 12.7951 27.5159C13.0953 27.312 13.2143 27.1138 13.2143 26.8306C13.2143 26.5474 13.0727 26.2642 12.8574 26.1056C12.7781 26.0489 12.4496 25.9526 12.1211 25.8847C9.70254 25.3862 7.37461 24.0212 5.74902 22.1294C4.29902 20.4472 3.40977 18.5497 3.01895 16.2841C2.88301 15.4911 2.88301 13.5087 3.01895 12.7157C3.625 9.21534 5.57344 6.31534 8.50742 4.54249C9.2041 4.12335 10.7051 3.42667 10.6371 3.55694C10.3199 4.15733 10.2406 4.3839 10.2746 4.57648C10.3652 5.15987 10.9713 5.4714 11.4924 5.19952C11.7246 5.08058 11.7926 4.98995 12.3023 4.07804C13.152 2.57706 13.2143 2.44112 13.2086 2.16358C13.2029 1.73878 13.067 1.61417 11.7076 0.792881C10.4162 0.0112409 10.1896 -0.0793841 9.85547 0.0622175Z" fill="#22668A"/>
<path d="M16.1992 1.47832C15.9556 1.63125 15.8763 1.72754 15.8027 1.98242C15.7291 2.24297 15.814 2.55449 16.0179 2.78105C16.1539 2.93398 16.2672 2.97363 16.8845 3.11523C20.2263 3.86855 22.8771 5.80566 24.5707 8.72266C25.2107 9.82148 25.6978 11.1809 25.9527 12.5742C26.1283 13.5145 26.1283 15.4855 25.9527 16.4258C25.324 19.8582 23.3869 22.7129 20.4926 24.4574C19.7959 24.8766 18.3006 25.5732 18.3629 25.4486C18.7254 24.7236 18.7594 24.6217 18.7254 24.4234C18.6347 23.84 18.0287 23.5285 17.5076 23.8004C17.2754 23.9193 17.2074 24.01 16.6976 24.9219C15.848 26.4229 15.7857 26.5588 15.7914 26.8363C15.797 27.2555 15.933 27.3801 17.298 28.207C18.4761 28.9264 18.5668 28.9717 18.8443 28.9717C19.3314 28.9717 19.6769 28.6318 19.6769 28.1504C19.6769 27.8049 19.5637 27.635 19.1558 27.3574C18.9972 27.2498 18.867 27.1479 18.8613 27.1309C18.8613 27.1139 19.0199 27.0402 19.2181 26.9666C19.8242 26.7344 20.906 26.202 21.4668 25.8564C24.0156 24.2762 25.9187 21.9482 26.9779 19.1162C28.3486 15.4629 27.9918 11.2545 26.0264 7.84473C24.1346 4.56523 20.8664 2.19199 17.2074 1.45C16.6297 1.33105 16.4371 1.33672 16.1992 1.47832Z" fill="#22668A"/>
<path d="M13.4805 6.33806C11.8492 6.68356 10.5182 7.73141 9.79883 9.23805C9.47031 9.92907 9.3457 10.4785 9.30605 11.4017L9.27207 12.1834L9.11348 12.2683C8.83027 12.4099 8.39414 12.9027 8.20156 13.2935L8.01465 13.6787V16.9355V20.1923L8.14492 20.5209C8.30352 20.9004 8.7793 21.4441 9.14746 21.6593C9.69687 21.9822 9.65722 21.9822 14.6473 21.9652L19.2295 21.9482L19.558 21.8179C19.9318 21.665 20.4812 21.1892 20.6908 20.8267C21.0137 20.2716 21.0193 20.232 21.0023 16.8166C20.9853 13.6843 20.9853 13.6787 20.8551 13.3955C20.6625 12.9763 20.317 12.5515 20.0055 12.3476L19.7279 12.172L19.6939 11.3961C19.6543 10.4785 19.5297 9.92907 19.2012 9.23805C18.159 7.05739 15.7801 5.85661 13.4805 6.33806ZM15.3156 8.04294C16.9242 8.45075 18.006 9.85544 18.0117 11.5377V11.9511H14.5H10.9883V11.5377C10.9939 9.93473 11.9965 8.55837 13.5088 8.08259C14.0922 7.90134 14.7039 7.88434 15.3156 8.04294ZM14.8851 15.6271C15.0098 15.6894 15.1457 15.8254 15.225 15.967C15.3496 16.1879 15.3553 16.2502 15.3383 17.0148C15.3213 17.7341 15.31 17.8531 15.2023 17.989C14.9928 18.2722 14.7945 18.3798 14.5 18.3798C14.2055 18.3798 14.0072 18.2722 13.7976 17.989C13.6957 17.8531 13.6787 17.7341 13.6617 17.0375C13.6391 16.0859 13.7014 15.882 14.0695 15.6611C14.3471 15.4912 14.6019 15.4798 14.8851 15.6271Z" fill="#22668A"/>
</svg>
