<svg width="25" height="25" viewBox="0 0 25 25" fill="none" xmlns="http://www.w3.org/2000/svg">
<path d="M9.49706 0.0488501C6.29882 0.410178 3.5205 2.09963 1.73339 4.78518C-0.131848 7.58791 -0.512707 11.25 0.73241 14.3994C1.26952 15.7569 2.02147 16.9043 3.05175 17.9444C4.7705 19.6778 6.76757 20.6836 9.15038 21.0205C9.87792 21.1231 11.2842 21.1231 11.9873 21.0205C13.8232 20.752 15.5029 20.0537 16.8945 18.9893L17.3486 18.6426L20.4541 21.7481C22.6172 23.9112 23.6133 24.8731 23.7402 24.9268C24.1943 25.1123 24.6924 24.9024 24.9072 24.4385C25.0195 24.1992 25.0244 23.9795 24.9267 23.7403C24.873 23.6133 23.9111 22.6172 21.748 20.4541L18.6426 17.3487L18.9892 16.8946C20.0537 15.503 20.7519 13.8233 21.0205 11.9873C21.123 11.2842 21.123 9.87795 21.0205 9.15041C20.6836 6.7676 19.6777 4.77053 17.9443 3.05178C16.3574 1.47951 14.3506 0.463889 12.1582 0.122092C11.5527 0.0293188 10.0488 -0.00974369 9.49706 0.0488501ZM11.9629 1.9678C14.4824 2.40237 16.6308 3.8428 17.9687 5.99612C18.8281 7.38772 19.2432 8.85256 19.248 10.5225C19.2529 11.4014 19.1943 11.8799 18.9892 12.6953C18.2226 15.7715 15.7715 18.2227 12.6953 18.9893C11.8799 19.1944 11.4014 19.253 10.5224 19.2481C8.85253 19.2432 7.38768 18.8281 5.99608 17.9688C3.80858 16.6114 2.36327 14.4239 1.94823 11.8408C1.85057 11.2598 1.86522 9.75588 1.96776 9.14065C2.27538 7.34865 3.12011 5.71291 4.41405 4.41408C5.87889 2.95412 7.5537 2.16311 9.76561 1.88479C10.0976 1.84573 11.5527 1.89944 11.9629 1.9678Z" fill="#8A8A8A"/>
<path d="M5.88376 5.51269C5.5029 5.68359 4.8486 6.5039 4.44333 7.31445C3.9697 8.26172 3.79392 9.0332 3.78904 10.1562C3.78415 10.8301 3.79392 10.9326 3.88669 11.1035C4.17478 11.6602 4.87302 11.792 5.34177 11.3818C5.55661 11.1914 5.6152 10.9717 5.6152 10.3174C5.6152 9.02832 5.97165 8.05664 6.76755 7.14355C7.18258 6.66992 7.26559 6.37207 7.08493 5.98144C6.8652 5.50293 6.34762 5.30273 5.88376 5.51269Z" fill="#8A8A8A"/>
</svg>
