<svg width="31" height="31" viewBox="0 0 31 31" fill="none" xmlns="http://www.w3.org/2000/svg">
<path d="M8.71875 3.875H7.42708C5.46533 3.875 3.875 5.46533 3.875 7.42708V23.5729C3.875 25.5347 5.46533 27.125 7.42708 27.125H7.75V19.375C7.75 17.77 9.05117 16.4687 10.6562 16.4687H20.154L22.463 14.1598C23.2909 13.3318 24.3792 12.9172 25.4626 12.9167H25.4653C26.0298 12.9169 26.5954 13.0296 27.125 13.2544V10.7021C27.125 9.58879 26.6827 8.52103 25.8955 7.73378L23.2663 5.10454C22.4897 4.3281 21.4405 3.88723 20.3437 3.87525V9.6875C20.3437 11.2926 19.0425 12.5937 17.4375 12.5937H11.625C10.0199 12.5937 8.71875 11.2926 8.71875 9.6875V3.875Z" fill="white"/>
<path d="M18.2165 18.4062L14.8391 21.7837C14.229 22.3938 13.7963 23.158 13.587 23.995L12.9958 26.3597C12.9309 26.6197 12.9054 26.8764 12.9148 27.125H9.6875V19.375C9.6875 18.84 10.1212 18.4062 10.6563 18.4062H18.2165Z" fill="white"/>
<path d="M18.4062 3.875V9.6875C18.4062 10.2225 17.9725 10.6562 17.4375 10.6562H11.625C11.09 10.6562 10.6562 10.2225 10.6562 9.6875V3.875H18.4062Z" fill="white"/>
<path d="M25.4654 14.2083H25.4627C24.7076 14.2087 23.9525 14.4969 23.3764 15.0731L15.7525 22.697C15.3079 23.1415 14.9926 23.6984 14.8402 24.3084L14.249 26.673C13.992 27.7013 14.9234 28.6329 15.9517 28.3757L18.3163 27.7845C18.9263 27.6321 19.4832 27.3168 19.9277 26.8722L27.5516 19.2483C28.7047 18.0953 28.7047 16.226 27.5516 15.0731C26.9755 14.4969 26.2206 14.2087 25.4654 14.2083Z" fill="white"/>
</svg>
