<svg width="29" height="40" viewBox="0 0 29 40" fill="none" xmlns="http://www.w3.org/2000/svg">
<path d="M9.18581 1.15318C8.75101 1.28845 8.37418 1.53 8.06499 1.85852C7.73647 2.20636 7.4466 2.7088 7.4466 2.94069C7.4466 3.05664 7.13741 3.08562 5.49484 3.11461C3.74597 3.1436 3.48509 3.16292 3.08894 3.3465C2.45124 3.64603 1.98745 4.10016 1.67826 4.71854L1.40771 5.26928V20.6322V35.9952L1.61062 36.4396C1.91015 37.0773 2.36428 37.5411 2.98266 37.8503L3.5334 38.1208H14.5967H25.6599L26.2106 37.8503C26.829 37.5411 27.2832 37.0773 27.5827 36.4396L27.7856 35.9952V20.6322V5.26928L27.5827 4.82482C27.2832 4.18712 26.829 3.72333 26.2106 3.41414C25.6696 3.15326 25.6212 3.1436 23.7081 3.11461C22.0559 3.08562 21.7467 3.05664 21.7467 2.94069C21.7467 2.50589 21.0703 1.66528 20.4423 1.3271C20.0655 1.11453 19.9882 1.11453 14.7416 1.0952C11.8236 1.08554 9.32108 1.11453 9.18581 1.15318ZM19.7176 3.19191C19.8722 3.3465 19.9109 3.51076 19.9109 4.06151C19.9109 5.21131 20.365 5.12435 14.5967 5.12435C8.8283 5.12435 9.28243 5.21131 9.28243 4.06151C9.28243 2.9117 8.8283 2.99866 14.5967 2.99866C19.3988 2.99866 19.534 3.00832 19.7176 3.19191ZM7.4466 5.17266C7.4466 5.61713 8.12296 6.45774 8.75101 6.79592C9.13749 7.00849 9.18581 7.00849 14.5967 7.00849C19.737 7.00849 20.0751 6.99882 20.394 6.8249C21.051 6.47706 21.7467 5.62679 21.7467 5.17266C21.7467 5.04705 21.9786 5.02773 23.4376 5.02773C25.2927 5.02773 25.5729 5.09536 25.7855 5.55915C25.9498 5.92632 25.9498 35.3381 25.7855 35.7053C25.5343 36.2657 26.0464 36.2367 14.6063 36.2367C6.64464 36.2367 4.01652 36.2077 3.82327 36.1208C3.26286 35.8696 3.29185 36.7681 3.29185 20.6129C3.30151 8.46748 3.32084 5.71375 3.42712 5.5205C3.66868 5.0857 3.90057 5.03739 5.73639 5.02773C7.21471 5.02773 7.4466 5.04705 7.4466 5.17266Z" fill="#22668A"/>
<path d="M17.6982 9.70432C17.2634 9.94587 17.0895 10.5159 17.3117 10.9507C17.3697 11.0667 17.7079 11.4532 18.0557 11.8107L18.6934 12.4677H14.1908C9.34039 12.4677 9.29208 12.4774 9.03119 12.9605C8.77031 13.4629 8.9539 14.0716 9.42735 14.2842C9.61093 14.3712 11.1859 14.4001 15.4662 14.4001C19.7466 14.4001 21.3215 14.3712 21.5051 14.2842C21.9786 14.0716 22.1622 13.4629 21.9013 12.9701C21.737 12.661 18.8867 9.82993 18.5871 9.67533C18.3069 9.54006 17.9881 9.54972 17.6982 9.70432Z" fill="#22668A"/>
<path d="M7.45626 17.0475C7.00213 17.2987 6.84754 17.8592 7.09876 18.3423C7.33065 18.7771 10.268 21.6274 10.5578 21.695C11.3018 21.8786 11.9299 21.2506 11.7463 20.5163C11.7173 20.381 11.3791 19.9462 11.0023 19.55L10.3163 18.8447H14.8189C19.6596 18.8447 19.708 18.835 19.9688 18.3519C20.2297 17.8495 20.0461 17.2408 19.5727 17.0282C19.1862 16.8543 7.77511 16.8736 7.45626 17.0475Z" fill="#22668A"/>
<path d="M6.49005 24.1976C5.84268 24.5551 5.862 25.5792 6.5287 25.8788C6.8862 26.043 22.1139 26.043 22.4714 25.8788C22.7516 25.7532 23.0028 25.3473 23.0028 25.0285C23.0028 24.7097 22.7516 24.3038 22.4714 24.1782C22.0849 24.0043 6.8089 24.0236 6.49005 24.1976Z" fill="#22668A"/>
<path d="M6.49005 30.3814C5.84268 30.7389 5.862 31.7631 6.5287 32.0626C6.8862 32.2269 22.1139 32.2269 22.4714 32.0626C22.7516 31.937 23.0028 31.5312 23.0028 31.2123C23.0028 30.8935 22.7516 30.4877 22.4714 30.3621C22.0849 30.1882 6.8089 30.2075 6.49005 30.3814Z" fill="#22668A"/>
</svg>
